<svg xmlns="http://www.w3.org/2000/svg" style="display: none;"><symbol id="icon-printer" viewBox="0 0 64 64"><title>printer</title><g><g class="nc-icon-wrapper"><circle data-stroke="none" fill="currentColor" cx="47.5" cy="24.5" r="1.5" stroke-linejoin="miter" stroke-linecap="square" stroke="none"/> <path fill="none" stroke="currentColor" stroke-linecap="square" stroke-miterlimit="10" d="M16,48H2V30 c0-7.732,6.268-14,14-14h32c7.732,0,14,6.268,14,14v18H48" stroke-linejoin="miter"/> <polyline data-color="color-2" fill="none" stroke-linecap="square" stroke-miterlimit="10" points=" 16,10 16,2 48,2 48,10 " stroke-linejoin="miter"/> <rect data-color="color-2" x="16" y="34" fill="none" stroke-linecap="square" stroke-miterlimit="10" width="32" height="28" stroke-linejoin="miter"/> <line data-color="color-2" fill="none" stroke-linecap="square" stroke-miterlimit="10" x1="24" y1="44" x2="40" y2="44" stroke-linejoin="miter"/> <line data-color="color-2" fill="none" stroke-linecap="square" stroke-miterlimit="10" x1="24" y1="52" x2="40" y2="52" stroke-linejoin="miter"/></g></g></symbol><symbol id="icon-search-3" viewBox="0 0 64 64"><title>search 3</title><g><g class="nc-icon-wrapper"><line data-cap="butt" fill="none" stroke="currentColor" stroke-miterlimit="10" x1="46.384" y1="46.384" x2="62" y2="62" stroke-linejoin="miter" stroke-linecap="butt"/> <circle fill="none" stroke="currentColor" stroke-linecap="square" stroke-miterlimit="10" cx="28" cy="28" r="26" stroke-linejoin="miter"/> <path data-color="color-2" fill="none" stroke-linecap="square" stroke-miterlimit="10" d="M40,40 v-1.965c0-1.42-0.745-2.726-1.967-3.449C36.088,33.435,32.716,32,28,32c-4.777,0-8.127,1.426-10.052,2.575 C16.736,35.299,16,36.601,16,38.013V40H40z" stroke-linejoin="miter"/> <circle data-color="color-2" fill="none" stroke-linecap="square" stroke-miterlimit="10" cx="28" cy="20" r="6" stroke-linejoin="miter"/></g></g></symbol><symbol id="icon-basket-search" viewBox="0 0 64 64"><title>basket search</title><g><g class="nc-icon-wrapper"><line data-cap="butt" data-color="color-2" fill="none" stroke-miterlimit="10" x1="54.364" y1="54.364" x2="61" y2="61" stroke-linejoin="miter" stroke-linecap="butt"/> <circle data-color="color-2" fill="none" stroke-linecap="square" stroke-miterlimit="10" cx="48" cy="48" r="9" stroke-linejoin="miter"/> <line data-cap="butt" data-color="color-2" fill="none" stroke-miterlimit="10" x1="14" y1="20" x2="23.818" y2="2" stroke-linejoin="miter" stroke-linecap="butt"/> <line data-cap="butt" data-color="color-2" fill="none" stroke-miterlimit="10" x1="50" y1="20" x2="40.182" y2="2" stroke-linejoin="miter" stroke-linecap="butt"/> <rect x="2" y="20" fill="none" stroke="currentColor" stroke-linecap="square" stroke-miterlimit="10" width="60" height="10" stroke-linejoin="miter"/> <path fill="none" stroke="currentColor" stroke-linecap="square" stroke-miterlimit="10" d="M35,62H12 c-2.209,0-4-1.791-4-4V30" stroke-linejoin="miter"/></g></g></symbol><symbol id="icon-search" viewBox="0 0 48 48"><title>search</title><g><g class="nc-icon-wrapper"><rect x="6" y="2" fill="none" stroke="currentColor" stroke-linecap="square" stroke-miterlimit="10" width="36" height="44" stroke-linejoin="miter"/> <line data-cap="butt" data-color="color-2" fill="none" stroke-miterlimit="10" x1="27" y1="26" x2="33" y2="32" stroke-linejoin="miter" stroke-linecap="butt"/> <circle data-color="color-2" fill="none" stroke-linecap="square" stroke-miterlimit="10" cx="22" cy="21" r="7" stroke-linejoin="miter"/></g></g></symbol></svg>