<?xml version="1.0" encoding="utf-8"?>
<!-- Generator: Adobe Illustrator 22.1.0, SVG Export Plug-In . SVG Version: 6.00 Build 0)  -->
<svg version="1.1" id="Camada_1" xmlns="http://www.w3.org/2000/svg" xmlns:xlink="http://www.w3.org/1999/xlink" x="0px" y="0px"
	 viewBox="0 0 192 70" style="enable-background:new 0 0 192 70;" xml:space="preserve">
<style type="text/css">
	.st0{clip-path:url(#SVGID_2_);fill:#FF1537;}
	.st1{opacity:0.25;clip-path:url(#SVGID_2_);}
	.st2{clip-path:url(#SVGID_2_);fill:#B30000;}
</style>
<g>
	<defs>
		<rect id="SVGID_1_" x="6" y="4.6" width="179.7" height="60.5"/>
	</defs>
	<clipPath id="SVGID_2_">
		<use xlink:href="#SVGID_1_"  style="overflow:visible;"/>
	</clipPath>
	<path class="st0" d="M168.3,4.6h-0.2c-4.2,0-8,1.5-11,3.9c-3.3,2.7-5.6,6.5-6.2,10.9c-0.1,0.8-0.2,1.7-0.2,2.6l0,0v0v3.4
		c0,9.6,7.8,17.4,17.4,17.4h0.2c9.6,0,17.4-7.8,17.4-17.4l0,0v0V22C185.7,12.4,177.9,4.6,168.3,4.6 M178.5,25.8
		c0,5.7-4.6,10.3-10.3,10.3c-5.7,0-10.3-4.6-10.3-10.3v-4c0-0.6,0.1-1.2,0.2-1.8c0.8-4.8,5.1-8.6,10.2-8.6c5.7,0,10.3,4.6,10.3,10.3
		V25.8z"/>
	<g class="st1">
		<g>
			<defs>
				<rect id="SVGID_3_" x="146.1" y="27.6" width="0.1" height="0.1"/>
			</defs>
			<clipPath id="SVGID_4_">
				<use xlink:href="#SVGID_3_"  style="overflow:visible;"/>
			</clipPath>
		</g>
	</g>
	<path class="st2" d="M90,42.4H78.7c-6.1,0-11.1-5-11.1-11.1V29c0-6.1,5-11.1,11.1-11.1h13l0,1.1l-13,0c-5.5,0-10,4.5-10,10v2.2
		c0,5.5,4.5,10,10,10H90c4.1,0,7.4-3.3,7.4-7.4V15.8c0-5.8-3.9-9.5-10-9.5H72.2c-0.1-0.4,0-0.8,0-1.2h15.2C94,5,98.5,9.4,98.5,15.8
		v18.1C98.5,38.6,94.7,42.4,90,42.4"/>
	<path class="st0" d="M68.7,31.2c0,5.5,4.5,10,10,10H90c4.1,0,7.4-3.3,7.4-7.4V15.8c0-5.8-3.9-9.6-10-9.6H72.2
		c0.3,2.2,2.5,5.8,7.1,5.8l8.1,0c2.8,0,4.3,2,4.3,4.3l0,2.7l-13,0c-5.5,0-10,4.5-10,10V31.2z M74.4,28.7c0-2.4,1.9-4.3,4.3-4.3h11.1
		c0.8-0.1,1.5-0.4,1.9-1.1v9.6c0,1.5-1.2,2.7-2.7,2.7H78.7c-2.4,0-4.3-1.9-4.3-4.3V28.7z"/>
	<path class="st0" d="M72.2,5.9c0,0.1,0,0.1,0,0.2C72.2,6.1,72.2,6,72.2,5.9"/>
	<path class="st0" d="M7.1,48.3v16.8c1.6-0.3,5.8-1.6,5.9-6.5V42.3C12.9,42.3,7.2,42.7,7.1,48.3"/>
	<path class="st2" d="M168.3,4.6L168.3,4.6l-0.1,1.2h0.1c8.9,0,16.2,7.3,16.2,16.2v2.9l0,0.5c0,8.9-7.3,16.2-16.2,16.2h-0.1v1.2h0.1
		c9.6,0,17.4-7.8,17.4-17.4l0,0v0V22C185.7,12.4,177.9,4.6,168.3,4.6"/>
	<path class="st2" d="M21.9,5H8.1c0,0.4,0,0.9,0.1,1.2l13.8,0c8.8,0,16,7.2,16,16v3.1c0,8.8-7.2,16-16,16l-8.9,0c-1.5,0-7,1.2-7,7.1
		v16.9c0.4,0,0.8,0,1.1-0.1V48.3c0-5.6,5.8-6,5.9-6c0,0,8.9,0,8.9,0c9.4,0,17.1-7.7,17.1-17.1v-3.1C39,12.7,31.4,5,21.9,5"/>
	<path class="st0" d="M37.9,22.1c0-8.8-7.2-16-16-16l-13.8,0C8.5,7.8,9.8,12,14.6,12l7.2,0v0c5.4,0,9.8,4.4,9.8,9.8v3.9
		c0,5.4-4.4,9.8-9.8,9.8h0H17c-0.9-0.1-1.6,0.1-2.3,0.5c-0.9,0.6-1.8,1.4-1.8,3.1v2.1c0,0,0,0,0.1,0l8.9,0c8.8,0,16-7.2,16-16V22.1z
		"/>
	<path class="st2" d="M146.2,5.1l-0.4,0.1c-1.2,0.2-7.2,1.4-7.3,7.7l0,29.6h1.1l0-29.6c0-0.9,0.3-5.7,6.3-6.6l0.2,0V5.1z"/>
	<path class="st0" d="M146,6.3c-5.9,0.9-6.3,5.6-6.3,6.6l0,29.6h5.2c0.7,0,1.3-0.6,1.3-1.3l0-34.9L146,6.3z"/>
	<path class="st2" d="M134,5.1h-5.7c-1.2,0-1.6,0.5-2.2,1.5l-15.9,33.7c-0.4,0.8-0.6,0.9-1.1,0.9h-5.5l-0.6,1.1h6.1
		c1.2,0,1.6-0.5,2.2-1.5l15.9-33.7c0.4-0.8,0.6-0.9,1.1-0.9h5.2L134,5.1z"/>
	<path class="st0" d="M106.5,35.3l-2.9,5.9h5.5c0.5,0,0.7,0,1.1-0.9l8-17.1l-8.1-17c-0.5-0.9-0.8-1.2-1.6-1.2H103l9.2,18.6
		L106.5,35.3z"/>
	<path class="st0" d="M133.4,6.2h-5.2c-0.5,0-0.7,0-1.1,0.9L119,24.4l7.9,16.8c0.5,0.9,0.8,1.2,1.6,1.2h5.4l-9.1-18.6L133.4,6.2z"/>
	<path class="st2" d="M68,5.1H54.8c-1.6,0-2.5,0.3-3.3,1c-0.8,0.7-1.2,1.8-1.2,3.2v26.4c0,3.1-2.5,5.6-5.6,5.6h-0.9v1.1h0.9
		c3.7,0,6.7-3,6.7-6.7V9.3c0-1.1,0.3-1.9,0.8-2.4c0.7-0.6,1.7-0.7,2.5-0.7H68C68,6,68,5.4,68,5.1"/>
	<path class="st0" d="M54.7,6.2c-0.8,0-1.8,0-2.5,0.7c-0.5,0.5-0.8,1.3-0.8,2.4v2.8h9.5c3.6,0,6.6-2.6,7.1-5.8H54.7z"/>
	<path class="st0" d="M44.7,41.2c3.1,0,5.6-2.5,5.6-5.6V12.2c-0.3,0.1-0.7,0.1-1,0.2c0,0,0,0,0,0c-0.1,0-0.1,0-0.2,0.1
		c-0.1,0-0.2,0.1-0.2,0.1l0,0c-2.9,0.9-5,3.5-5,6.7l0,22H44.7z"/>
</g>
</svg>
